# Blender v2.79 (sub 0) OBJ File: 'bull.blend'
# www.blender.org
mtllib bull.mtl
o Cube
v 0.160359 -0.160359 -0.161836
v 0.160359 -0.160359 0.161169
v -0.160359 -0.160359 0.160877
v -0.160359 -0.160359 -0.158473
v 0.160359 0.160359 -0.161631
v 0.160359 0.160359 0.160756
v -0.160359 0.160359 0.161072
v -0.160359 0.160359 -0.168220
v 0.318845 -0.119408 -0.119407
v 0.318845 -0.119408 0.119408
v 0.318845 0.070469 -0.119407
v 0.318845 0.070469 0.119408
v 0.503509 -0.107500 -0.080258
v 0.503509 -0.107500 0.080258
v 0.503509 0.053016 -0.080258
v 0.503509 0.053016 0.080258
v 0.131281 0.052817 0.302467
v 0.025008 0.052817 0.332934
v 0.131281 0.159090 0.302467
v 0.025008 0.159090 0.332934
v 0.176130 0.098880 0.414341
v 0.111034 0.098880 0.484019
v 0.176129 0.159090 0.414341
v 0.111034 0.159090 0.484019
v 0.290539 0.130906 0.450389
v 0.225443 0.130906 0.487704
v 0.290539 0.159090 0.450389
v 0.225443 0.159090 0.487704
v 0.116899 0.041057 -0.287096
v 0.021702 0.041057 -0.326620
v 0.116899 0.149267 -0.287096
v 0.021702 0.149267 -0.326620
v 0.171564 0.091029 -0.390033
v 0.117165 0.091029 -0.458285
v 0.171564 0.149267 -0.390033
v 0.117165 0.149267 -0.458284
v 0.306672 0.123290 -0.441577
v 0.221679 0.123290 -0.478301
v 0.306672 0.149267 -0.441577
v 0.221679 0.149267 -0.478301
v 0.530935 -0.030126 -0.030585
v 0.530935 -0.030126 0.030585
v 0.530935 0.031044 -0.030585
v 0.530935 0.031044 0.030585
vn 0.2817 -0.7852 -0.5513
vn 0.2826 -0.7907 0.5430
vn -0.6324 -0.6484 0.4238
vn -0.6315 -0.6503 -0.4223
vn 0.4811 0.8125 -0.3291
vn -0.7063 0.6239 -0.3344
vn -0.7132 0.6274 0.3124
vn 0.4947 0.8252 0.2726
vn 0.3780 0.5978 0.7069
vn 0.3800 0.5979 -0.7057
vn 0.2812 -0.6666 0.6902
vn 0.5698 -0.6112 0.5493
vn 0.5257 0.6074 0.5955
vn 0.2829 -0.6670 -0.6892
vn 0.5257 0.6074 -0.5955
vn 0.9118 0.3707 0.1764
vn 0.9118 0.3707 -0.1764
vn 0.5698 -0.6112 -0.5493
vn -0.4988 0.7152 -0.4895
vn -0.3936 -0.4542 -0.7992
vn -0.4353 -0.4545 0.7772
vn -0.5239 0.7414 0.4193
vn -0.3403 -0.5598 0.7555
vn -0.4085 0.6119 0.6773
vn 0.7661 -0.5207 0.3768
vn 0.6271 0.7771 -0.0523
vn 0.6019 -0.7754 -0.1911
vn 0.8797 -0.4665 -0.0915
vn 0.2693 -0.5039 0.8207
vn 0.3918 0.8172 -0.4227
vn 0.8316 0.5480 -0.0898
vn 0.1836 0.6505 0.7369
vn -0.4154 0.6328 -0.6534
vn -0.3245 -0.5765 -0.7499
vn 0.7388 -0.5162 -0.4331
vn 0.6004 0.7996 0.0051
vn 0.4013 0.7954 0.4542
vn 0.8372 0.5466 0.0182
vn 0.0832 0.6465 -0.7583
vn 0.6131 -0.7497 0.2488
vn 0.8800 -0.4743 0.0228
vn 0.1582 -0.5140 -0.8430
vn 0.9716 -0.1192 -0.2045
vn 0.9716 -0.1192 0.2045
usemtl Material
s 1
f 1//1 2//2 3//3 4//4
f 5//5 8//6 7//7 6//8
f 5//5 6//8 12//9 11//10
f 3//3 7//7 8//6 4//4
f 12//9 10//11 14//12 16//13
f 6//8 2//2 10//11 12//9
f 1//1 5//5 11//10 9//14
f 2//2 1//1 9//14 10//11
f 15//15 16//13 44//16 43//17
f 10//11 9//14 13//18 14//12
f 11//10 12//9 16//13 15//15
f 9//14 11//10 15//15 13//18
f 4//4 8//6 32//19 30//20
f 7//7 3//3 18//21 20//22
f 20//22 18//21 22//23 24//24
f 3//3 2//2 17//25 18//21
f 6//8 7//7 20//22 19//26
f 2//2 6//8 19//26 17//25
f 22//23 21//27 25//28 26//29
f 18//21 17//25 21//27 22//23
f 19//26 20//22 24//24 23//30
f 17//25 19//26 23//30 21//27
f 25//28 27//31 28//32 26//29
f 23//30 24//24 28//32 27//31
f 21//27 23//30 27//31 25//28
f 24//24 22//23 26//29 28//32
f 30//20 32//19 36//33 34//34
f 1//1 4//4 30//20 29//35
f 8//6 5//5 31//36 32//19
f 5//5 1//1 29//35 31//36
f 36//33 35//37 39//38 40//39
f 29//35 30//20 34//34 33//40
f 32//19 31//36 35//37 36//33
f 31//36 29//35 33//40 35//37
f 39//38 37//41 38//42 40//39
f 35//37 33//40 37//41 39//38
f 34//34 36//33 40//39 38//42
f 33//40 34//34 38//42 37//41
f 41//43 43//17 44//16 42//44
f 13//18 15//15 43//17 41//43
f 16//13 14//12 42//44 44//16
f 14//12 13//18 41//43 42//44
